<svg xmlns="http://www.w3.org/2000/svg" version="1.1" xmlns:xlink="http://www.w3.org/1999/xlink" xmlns:svgjs="http://svgjs.com/svgjs" width="512" height="512" x="0" y="0" viewBox="0 0 50 50" style="enable-background:new 0 0 512 512" xml:space="preserve" class=""><g><g xmlns="http://www.w3.org/2000/svg"><path d="m44.1 4v42c0 1.66-1.34 3-3 3h-32.2c-1.65 0-3-1.34-3-3v-42c0-1.65 1.35-3 3-3h32.2c1.66 0 3 1.35 3 3z" fill="#d7dadc" data-original="#d7dadc" class=""></path><path d="m8.9 4.187h32.2v11.32h-32.2z" fill="#e46047" data-original="#e46047"></path><path d="m23.438 20.68v9.02c0 .55-.44 1-1 1h-12.54c-.55 0-1-.45-1-1v-9.02c0-.55.45-1 1-1h12.54c.56 0 1 .45 1 1z" fill="#4fb7e4" data-original="#4fb7e4"></path><g fill="#bdc2c5"><path d="m41.1 20.767c0 .61-.49 1.09-1.09 1.09h-13.43c-.6 0-1.09-.48-1.09-1.09 0-.6.49-1.09 1.09-1.09h13.43c.6 0 1.09.49 1.09 1.09z" fill="#bdc2c5" data-original="#bdc2c5"></path><path d="m41.1 25.19c0 .61-.49 1.09-1.09 1.09h-13.43c-.6 0-1.09-.48-1.09-1.09 0-.6.49-1.09 1.09-1.09h13.43c.6 0 1.09.49 1.09 1.09z" fill="#bdc2c5" data-original="#bdc2c5"></path><path d="m41.1 29.612c0 .61-.49 1.09-1.09 1.09h-13.43c-.6 0-1.09-.48-1.09-1.09 0-.6.49-1.09 1.09-1.09h13.43c.6 0 1.09.49 1.09 1.09z" fill="#bdc2c5" data-original="#bdc2c5"></path><path d="m8.9 35.878c0 .61.49 1.09 1.09 1.09h30.02c.6 0 1.09-.48 1.09-1.09 0-.6-.49-1.09-1.09-1.09h-30.02c-.6 0-1.09.49-1.09 1.09z" fill="#bdc2c5" data-original="#bdc2c5"></path><path d="m8.9 40.3c0 .61.49 1.09 1.09 1.09h30.02c.6 0 1.09-.48 1.09-1.09 0-.6-.49-1.09-1.09-1.09h-30.02c-.6 0-1.09.49-1.09 1.09z" fill="#bdc2c5" data-original="#bdc2c5"></path><path d="m8.9 44.723c0 .61.49 1.09 1.09 1.09h30.02c.6 0 1.09-.48 1.09-1.09 0-.6-.49-1.09-1.09-1.09h-30.02c-.6 0-1.09.49-1.09 1.09z" fill="#bdc2c5" data-original="#bdc2c5"></path></g><g fill="#fff"><path d="m16.615 6.967h1.3v5.826h-1.3l-2.776-3.651v3.651h-1.3v-5.826h1.217l2.859 3.751z" fill="#ffffff" data-original="#ffffff"></path><path d="m23.55 6.967v1.159h-2.901v1.2h2.609v1.109h-2.609v1.209h2.992v1.15h-4.292v-5.827z" fill="#ffffff" data-original="#ffffff"></path><path d="m26.617 10.318 1.034-3.351h1.358l1.025 3.351 1.159-3.351h1.409l-2.034 5.826h-.967l-1.275-4.051-1.267 4.051h-.967l-2.034-5.826h1.409z" fill="#ffffff" data-original="#ffffff"></path><path d="m34.615 8.13c-.125.103-.188.239-.188.408 0 .17.076.304.229.404s.505.218 1.058.354.982.341 1.288.613.458.67.458 1.192-.196.946-.587 1.271c-.392.325-.907.488-1.546.488-.922 0-1.753-.342-2.492-1.025l.775-.95c.628.55 1.209.825 1.742.825.239 0 .426-.051.563-.154.136-.103.204-.241.204-.417s-.072-.314-.217-.417-.431-.207-.859-.313c-.678-.161-1.174-.371-1.488-.629s-.471-.664-.471-1.217.199-.979.596-1.28c.397-.3.893-.45 1.488-.45.389 0 .778.067 1.167.2s.728.322 1.017.567l-.659.95c-.506-.384-1.028-.575-1.567-.575-.216.001-.387.053-.511.155z" fill="#ffffff" data-original="#ffffff"></path></g></g></g></svg>