<svg xmlns="http://www.w3.org/2000/svg" version="1.1" xmlns:xlink="http://www.w3.org/1999/xlink" xmlns:svgjs="http://svgjs.com/svgjs" width="512" height="512" x="0" y="0" viewBox="0 0 64 64" style="enable-background:new 0 0 512 512" xml:space="preserve" class=""><g><path xmlns="http://www.w3.org/2000/svg" d="m17.9 21.9c1.8 0 3.4 1.5 3.4 3.4 0 1.8-1.5 3.4-3.4 3.4s-3.4-1.5-3.4-3.4 1.6-3.4 3.4-3.4zm-8.4-9h31.5c.6 0 1 .5 1 1 0 .6-.5 1-1 1h-31.5c-2 0-3.7 1.6-3.7 3.7v26.8c0 1 .4 1.9 1.1 2.6.4.4.4 1 0 1.4s-1 .4-1.4 0c-1.1-1.1-1.7-2.5-1.7-4v-26.8c0-3.1 2.5-5.7 5.7-5.7zm43 0h2.1c1.6 0 3 .6 4 1.7 1 1.2 1.6 2.4 1.6 4v26.8c0 3.1-2.6 5.7-5.7 5.7h-40.2l-8.8 8.8c-.4.4-1 .4-1.4 0s-.4-1 0-1.4c18.2-18.2 36.2-36.3 54.4-54.4.4-.4 1-.4 1.4 0s.4 1 0 1.4zm-36.2 36.2h38.2c2 0 3.7-1.7 3.7-3.7v-26.8c0-1-.4-1.9-1-2.6-.8-.7-1.6-1.1-2.6-1.1h-4.1l-20.4 20.5 1.6 4.1c.1.3.4.3.6.1l9.1-9.2c.8-.8 2.1-.9 3-.3.2.2.4.4.6.6l7.9 9.2c.4.4.3 1-.1 1.4-.4.3-1 .3-1.4-.1l-7.9-9.2c-.1-.1-.2-.2-.3-.3s-.3-.1-.4.1l-9.1 9.2c-1.2 1.2-3.2.8-3.9-.8l-1.3-3.3zm1.6-25.2c-.8 0-1.4.6-1.4 1.4s.6 1.4 1.4 1.4c.7 0 1.4-.6 1.4-1.4s-.6-1.4-1.4-1.4z" fill="#000000" data-original="#000000" class=""></path></g></svg>