<svg xmlns="http://www.w3.org/2000/svg" version="1.1" xmlns:xlink="http://www.w3.org/1999/xlink" xmlns:svgjs="http://svgjs.com/svgjs" width="512" height="512" x="0" y="0" viewBox="0 0 128 128" style="enable-background:new 0 0 512 512" xml:space="preserve" class=""><g><g xmlns="http://www.w3.org/2000/svg"><g><g fill="#ffe36e"><rect height="36" rx="8" width="36" x="19" y="19" fill="#ffe36e" data-original="#ffe36e" class=""></rect><rect height="36" rx="8" width="36" x="73" y="19" fill="#ffe36e" data-original="#ffe36e" class=""></rect><rect height="36" rx="8" width="36" x="19" y="73" fill="#ffe36e" data-original="#ffe36e" class=""></rect></g><path d="m91 109a18 18 0 0 1 -18-18 18 18 0 0 1 18-18 18 18 0 0 1 18 18 18 18 0 0 1 -18 18z" fill="#fa9579" data-original="#fa9579"></path></g><g fill="#4d2856"><path d="m19 40.126a1.751 1.751 0 0 0 1.75-1.75v-1.376a1.75 1.75 0 0 0 -3.5 0v1.376a1.751 1.751 0 0 0 1.75 1.75z" fill="#4d2856" data-original="#4d2856" class=""></path><path d="m47 17.25h-20a9.761 9.761 0 0 0 -9.75 9.75v2.1a1.75 1.75 0 1 0 3.5 0v-2.1a6.257 6.257 0 0 1 6.25-6.25h20a6.257 6.257 0 0 1 6.25 6.25v20a6.257 6.257 0 0 1 -6.25 6.25h-20a6.257 6.257 0 0 1 -6.25-6.25 1.75 1.75 0 0 0 -3.5 0 9.761 9.761 0 0 0 9.75 9.75h20a9.761 9.761 0 0 0 9.75-9.75v-20a9.761 9.761 0 0 0 -9.75-9.75z" fill="#4d2856" data-original="#4d2856" class=""></path><path d="m101 17.25h-20a9.761 9.761 0 0 0 -9.75 9.75v20a9.761 9.761 0 0 0 9.75 9.75h20a9.761 9.761 0 0 0 9.75-9.75v-20a9.761 9.761 0 0 0 -9.75-9.75zm6.25 29.75a6.257 6.257 0 0 1 -6.25 6.25h-20a6.257 6.257 0 0 1 -6.25-6.25v-20a6.257 6.257 0 0 1 6.25-6.25h20a6.257 6.257 0 0 1 6.25 6.25z" fill="#4d2856" data-original="#4d2856" class=""></path><path d="m47 71.25h-20a9.761 9.761 0 0 0 -9.75 9.75v20a9.761 9.761 0 0 0 9.75 9.75h20a9.761 9.761 0 0 0 9.75-9.75v-20a9.761 9.761 0 0 0 -9.75-9.75zm6.25 29.75a6.257 6.257 0 0 1 -6.25 6.25h-20a6.257 6.257 0 0 1 -6.25-6.25v-20a6.257 6.257 0 0 1 6.25-6.25h20a6.257 6.257 0 0 1 6.25 6.25z" fill="#4d2856" data-original="#4d2856" class=""></path><path d="m103.329 101.587q-.4.466-.836.9a1.75 1.75 0 1 0 2.474 2.475q.528-.528 1.016-1.095a1.75 1.75 0 1 0 -2.654-2.281z" fill="#4d2856" data-original="#4d2856" class=""></path><path d="m91 71.25a19.75 19.75 0 1 0 5.05 38.85 1.75 1.75 0 0 0 -.893-3.384 16.23 16.23 0 1 1 11.5-11.336 1.75 1.75 0 1 0 3.371.941 19.765 19.765 0 0 0 -19.028-25.071z" fill="#4d2856" data-original="#4d2856" class=""></path></g></g></g></svg>